<svg preserveAspectRatio="xMidYMid meet" data-bbox="0 0.01 614.96 136.43" viewBox="0 0.01 614.96 136.43" xmlns="http://www.w3.org/2000/svg" data-type="color" role="img" aria-label="Logo de Carbonapp">
    <g>
        <path d="M146.45 72.5c0 1.95.32 3.69.96 5.23.64 1.54 1.49 2.84 2.55 3.9 1.06 1.06 2.3 1.87 3.73 2.44s2.92.85 4.49.85c2.33 0 4.41-.57 6.26-1.72 1.85-1.15 3.25-2.75 4.21-4.82h13.78c-.61 2.59-1.62 4.99-3.03 7.22s-3.16 4.15-5.25 5.78-4.5 2.9-7.22 3.81-5.66 1.37-8.83 1.37c-3.69 0-7.08-.63-10.16-1.9-3.08-1.26-5.73-2.99-7.93-5.17s-3.93-4.73-5.17-7.65-1.85-6.02-1.85-9.31.61-6.39 1.83-9.31 2.94-5.48 5.14-7.67c2.21-2.19 4.85-3.93 7.93-5.21 3.08-1.28 6.48-1.92 10.2-1.92 3.17 0 6.1.46 8.81 1.37s5.09 2.18 7.17 3.79 3.83 3.53 5.25 5.75 2.46 4.64 3.1 7.26l-13.78.04c-.96-2.09-2.36-3.71-4.21-4.86-1.85-1.15-3.93-1.72-6.26-1.72-1.57 0-3.07.28-4.49.85s-2.67 1.39-3.75 2.46c-1.08 1.08-1.93 2.38-2.55 3.9s-.94 3.26-.94 5.21Z" fill="#000000" data-color="1"></path>
        <path d="M186.52 72.55c0-3.31.57-6.43 1.7-9.35s2.75-5.47 4.84-7.65 4.64-3.9 7.63-5.17c2.99-1.26 6.35-1.9 10.07-1.9 2.99 0 5.68.49 8.07 1.46 2.38.97 4.4 2.13 6.06 3.47l.57-3.49h11.47v45.21h-11.47l-.61-3.44c-1.69 1.34-3.71 2.48-6.08 3.44s-5.04 1.44-8 1.44c-3.69 0-7.03-.63-10.03-1.9-2.99-1.26-5.54-2.98-7.65-5.14-2.11-2.16-3.73-4.71-4.86-7.63s-1.7-6.04-1.7-9.35Zm13.47-.04c0 1.89.32 3.6.96 5.14.64 1.54 1.5 2.86 2.59 3.97 1.09 1.11 2.37 1.96 3.84 2.55 1.47.6 3.03.89 4.69.89s3.22-.3 4.69-.89c1.47-.6 2.75-1.44 3.84-2.53s1.95-2.41 2.57-3.97c.62-1.55.94-3.28.94-5.17s-.32-3.55-.96-5.08c-.64-1.53-1.5-2.83-2.59-3.92s-2.37-1.93-3.84-2.53c-1.47-.6-3.03-.89-4.69-.89s-3.26.3-4.73.89c-1.47.6-2.74 1.44-3.81 2.53-1.08 1.09-1.93 2.4-2.55 3.92-.63 1.53-.94 3.22-.94 5.08Z" fill="#000000" data-color="1"></path>
        <path d="m277.42 61.65-5.67.04c-3.72 0-6.62 1.03-8.7 3.1-2.08 2.06-3.12 5.17-3.12 9.33v21.01H246.5V49.92h10.81l1.05 4.27c1.45-1.22 3.22-2.24 5.3-3.05 2.08-.81 4.53-1.22 7.35-1.22h6.41v11.73Z" fill="#000000" data-color="1"></path>
        <path d="M333.01 72.55c0 3.31-.57 6.43-1.7 9.35s-2.75 5.48-4.86 7.67c-2.11 2.2-4.65 3.92-7.63 5.19s-6.31 1.9-10.01 1.9c-1.48 0-2.89-.13-4.23-.39s-2.6-.63-3.79-1.09-2.3-1-3.31-1.61-1.95-1.25-2.79-1.92l-.61 3.49h-11.47V33.71h13.47V52.5c1.63-1.19 3.51-2.16 5.65-2.92 2.14-.76 4.57-1.13 7.3-1.13 3.72 0 7.06.64 10.03 1.92 2.96 1.28 5.48 3.01 7.54 5.19s3.65 4.73 4.75 7.65 1.66 6.04 1.66 9.35Zm-13.47-.04c0-1.86-.31-3.55-.94-5.08s-1.47-2.83-2.55-3.92-2.35-1.93-3.81-2.53c-1.47-.6-3.04-.89-4.73-.89s-3.22.3-4.69.89c-1.47.6-2.75 1.44-3.84 2.53s-1.95 2.4-2.59 3.92-.96 3.22-.96 5.08.31 3.61.94 5.17c.62 1.55 1.48 2.88 2.57 3.97s2.36 1.93 3.81 2.53c1.45.6 3.02.89 4.71.89s3.22-.3 4.69-.89c1.47-.6 2.75-1.45 3.84-2.55 1.09-1.1 1.95-2.43 2.59-3.97.64-1.54.96-3.25.96-5.14Z" fill="#000000" data-color="1"></path>
        <path d="M337.63 72.55c0-3.31.61-6.43 1.83-9.35s2.94-5.47 5.17-7.65 4.88-3.9 7.96-5.17c3.08-1.26 6.48-1.9 10.2-1.9s7.13.63 10.22 1.9 5.75 2.99 7.98 5.17 3.95 4.73 5.19 7.65c1.24 2.92 1.85 6.04 1.85 9.35s-.62 6.43-1.85 9.35c-1.24 2.92-2.96 5.47-5.19 7.65s-4.89 3.9-8 5.14c-3.11 1.25-6.54 1.87-10.29 1.87s-7.03-.63-10.11-1.9c-3.08-1.26-5.73-2.98-7.93-5.14-2.21-2.16-3.93-4.71-5.17-7.63-1.24-2.92-1.85-6.04-1.85-9.35Zm13.47-.04c0 1.89.31 3.6.92 5.12s1.45 2.84 2.53 3.95c1.07 1.11 2.33 1.96 3.75 2.55 1.42.6 2.95.89 4.58.89s3.2-.3 4.62-.89c1.42-.6 2.66-1.44 3.71-2.53s1.87-2.4 2.48-3.95c.61-1.54.92-3.25.92-5.14s-.31-3.55-.92-5.08-1.45-2.83-2.51-3.92c-1.06-1.09-2.3-1.93-3.73-2.53-1.42-.6-2.96-.89-4.62-.89s-3.15.3-4.58.89c-1.42.6-2.67 1.44-3.73 2.53-1.06 1.09-1.9 2.4-2.51 3.92s-.92 3.22-.92 5.08Z" fill="#000000" data-color="1"></path>
        <path d="M441.65 95.13h-13.56V71.2c0-2.09-.22-3.85-.65-5.28-.44-1.42-1.05-2.56-1.83-3.42a6.71 6.71 0 0 0-2.81-1.85c-1.09-.38-2.29-.57-3.6-.57-1.66 0-3.15.31-4.49.94-1.34.63-2.48 1.48-3.42 2.57s-1.66 2.39-2.16 3.9c-.49 1.51-.74 3.15-.74 4.93v22.71h-13.47V49.92h10.86l.83 3.44c.93-.67 1.96-1.3 3.1-1.9 1.13-.6 2.33-1.11 3.57-1.55s2.54-.78 3.86-1.05 2.67-.39 4.03-.39c3.6 0 6.7.52 9.29 1.55 2.59 1.03 4.71 2.51 6.36 4.45 1.66 1.93 2.88 4.28 3.66 7.04.78 2.76 1.18 5.89 1.18 9.37v24.24Z" fill="#000000" data-color="1"></path>
        <path d="M447.15 72.55c0-3.31.57-6.43 1.7-9.35s2.75-5.47 4.84-7.65 4.64-3.9 7.63-5.17c2.99-1.26 6.35-1.9 10.07-1.9 2.99 0 5.68.49 8.07 1.46 2.38.97 4.4 2.13 6.06 3.47l.57-3.49h11.47v45.21h-11.47l-.61-3.44c-1.69 1.34-3.71 2.48-6.08 3.44s-5.04 1.44-8 1.44c-3.69 0-7.03-.63-10.03-1.9-2.99-1.26-5.54-2.98-7.65-5.14-2.11-2.16-3.73-4.71-4.86-7.63s-1.7-6.04-1.7-9.35Zm13.47-.04c0 1.89.32 3.6.96 5.14.64 1.54 1.5 2.86 2.59 3.97 1.09 1.11 2.37 1.96 3.84 2.55 1.47.6 3.03.89 4.69.89s3.22-.3 4.69-.89c1.47-.6 2.75-1.44 3.84-2.53s1.95-2.41 2.57-3.97c.62-1.55.94-3.28.94-5.17s-.32-3.55-.96-5.08c-.64-1.53-1.5-2.83-2.59-3.92s-2.37-1.93-3.84-2.53c-1.47-.6-3.03-.89-4.69-.89s-3.26.3-4.73.89c-1.47.6-2.74 1.44-3.81 2.53-1.08 1.09-1.93 2.4-2.55 3.92-.63 1.53-.94 3.22-.94 5.08Z" fill="#000000" data-color="1"></path>
        <path d="M557.67 72.5c0 3.31-.55 6.43-1.66 9.35s-2.69 5.47-4.75 7.65-4.58 3.9-7.54 5.17-6.31 1.9-10.03 1.9c-2.73 0-5.17-.37-7.3-1.11s-4.02-1.71-5.65-2.9v18h-13.47V49.92h10.86l.87 3.84c.84-.7 1.78-1.37 2.81-2.01 1.03-.64 2.16-1.2 3.38-1.68s2.52-.86 3.9-1.16c1.38-.29 2.84-.44 4.38-.44 3.69 0 7.03.63 10.01 1.9s5.52 2.98 7.63 5.14c2.11 2.17 3.73 4.71 4.86 7.63s1.7 6.04 1.7 9.35Zm-13.51.04c0-1.89-.31-3.6-.94-5.14-.62-1.54-1.48-2.86-2.57-3.97-1.09-1.1-2.37-1.95-3.84-2.55-1.47-.6-3.03-.89-4.69-.89s-3.26.3-4.71.89c-1.45.6-2.72 1.44-3.81 2.53s-1.95 2.41-2.57 3.97c-.62 1.55-.94 3.28-.94 5.17s.32 3.55.96 5.08 1.5 2.83 2.59 3.92 2.37 1.93 3.84 2.53c1.47.6 3.03.89 4.69.89s3.26-.3 4.73-.89c1.47-.6 2.74-1.43 3.81-2.51 1.08-1.07 1.92-2.38 2.53-3.9s.92-3.23.92-5.12Z" fill="#000000" data-color="1"></path>
        <path d="M614.96 72.5c0 3.31-.55 6.43-1.66 9.35s-2.69 5.47-4.75 7.65-4.58 3.9-7.54 5.17-6.31 1.9-10.03 1.9c-2.73 0-5.17-.37-7.3-1.11s-4.02-1.71-5.65-2.9v18h-13.47V49.92h10.86l.87 3.84c.84-.7 1.78-1.37 2.81-2.01 1.03-.64 2.16-1.2 3.38-1.68s2.52-.86 3.9-1.16c1.38-.29 2.84-.44 4.38-.44 3.69 0 7.03.63 10.01 1.9s5.52 2.98 7.63 5.14c2.11 2.17 3.73 4.71 4.86 7.63s1.7 6.04 1.7 9.35Zm-13.51.04c0-1.89-.31-3.6-.94-5.14-.62-1.54-1.48-2.86-2.57-3.97-1.09-1.1-2.37-1.95-3.84-2.55-1.47-.6-3.03-.89-4.69-.89s-3.26.3-4.71.89c-1.45.6-2.72 1.44-3.81 2.53s-1.95 2.41-2.57 3.97c-.62 1.55-.94 3.28-.94 5.17s.32 3.55.96 5.08 1.5 2.83 2.59 3.92 2.37 1.93 3.84 2.53c1.47.6 3.03.89 4.69.89s3.26-.3 4.73-.89c1.47-.6 2.74-1.43 3.81-2.51 1.08-1.07 1.92-2.38 2.53-3.9s.92-3.23.92-5.12Z" fill="#000000" data-color="1"></path>
        <path d="M9.35 46.28a2.7 2.7 0 0 0 1.93-.8l9.29-9.29a2.74 2.74 0 0 0 0-3.86c-.52-.52-1.2-.8-1.93-.8s-1.41.28-1.93.8l-9.29 9.29c-.52.51-.8 1.2-.8 1.93s.28 1.41.8 1.93c.51.51 1.2.8 1.93.8Zm10-11.31c.2-.2.29-.45.29-.71s-.1-.51-.29-.71c.2.2.29.45.29.71s-.1.51-.29.71l-9.29 9.29 9.29-9.29Z" fill="#ed6e13" data-color="2"></path>
        <path d="M24.86 30.77a2.7 2.7 0 0 0 1.93-.8l7.66-7.66C45.48 11.28 58.69 5.46 72.68 5.46c5.31 0 10.7.85 16.03 2.54.27.08.54.13.82.13 1.19 0 2.24-.76 2.6-1.9.22-.7.16-1.44-.18-2.08-.34-.65-.9-1.12-1.6-1.34C84.48.95 78.54.01 72.67.01c-15.46 0-30.01 6.38-42.08 18.45l-7.66 7.66c-.52.51-.8 1.2-.8 1.93s.28 1.41.8 1.93c.51.51 1.2.8 1.93.8ZM89.83 4.44c.26.08.47.27.59.49a.968.968 0 0 0-.59-.49h-.02.03Zm-.27 1.94s-.02.01-.03.01c-.1 0-.2-.01-.3-.05.11.04.22.04.33.04ZM72.67 1.72c.2 0 .41.02.61.02-.93-.01-1.86 0-2.78.03.72-.03 1.44-.06 2.17-.06Z" fill="#ed6e13" data-color="2"></path>
        <path d="M131.06 38.8c-3.09-7.63-7.64-14.47-13.51-20.34A61.318 61.318 0 0 0 99.29 5.84a2.734 2.734 0 0 0-3.61 1.37c-.62 1.36 0 2.98 1.36 3.6 6.2 2.79 11.8 6.65 16.64 11.5 5.35 5.35 9.49 11.59 12.31 18.54a2.741 2.741 0 0 0 3.56 1.5c.68-.27 1.2-.79 1.49-1.47.28-.67.29-1.41.02-2.09ZM98.14 7.33h.04-.05Zm18.19 12.34c2.85 2.85 5.38 5.94 7.58 9.24a59.41 59.41 0 0 0-7.58-9.24Zm11.49 20.85-.11-.17c.04.06.06.12.11.17Zm.71.29-.14-.03c.17.02.35.02.51-.05-.12.05-.25.07-.38.07Z" fill="#ed6e13" data-color="2"></path>
        <path d="M74.07 11.04c-13.62 0-26.4 5.29-36.01 14.89L14.89 49.1C5.29 58.7 0 71.49 0 85.11s5.29 26.4 14.89 36.01c.52.52 1.2.8 1.93.8s1.41-.28 1.93-.8a2.74 2.74 0 0 0 0-3.86c-17.73-17.73-17.73-46.57 0-64.3l23.17-23.17c8.57-8.57 19.99-13.29 32.15-13.29s23.58 4.72 32.15 13.29c17.73 17.73 17.73 46.57 0 64.3l-23.17 23.17c-.52.51-.8 1.2-.8 1.93s.28 1.41.8 1.93 1.2.8 1.93.8 1.41-.28 1.93-.8l23.17-23.17c19.86-19.85 19.86-52.16 0-72.01-9.6-9.6-22.39-14.89-36.01-14.89ZM17.53 118.48C.28 101.23-.8 73.83 14.29 55.32-.8 73.83.28 101.23 17.53 118.48ZM88.08 14.79Zm13.06 6.07c2.73 1.8 5.31 3.9 7.71 6.29-2.4-2.4-4.98-4.5-7.71-6.29Zm-15.46 99.03c-.2.2-.45.29-.71.29.26 0 .51-.1.71-.29l11.59-11.59-11.58 11.59Z" fill="#ed6e13" data-color="2"></path>
        <path d="M26.22 109.78c-13.6-13.61-13.6-35.74 0-49.35l15.51-15.51a2.74 2.74 0 0 0 0-3.86c-.52-.52-1.2-.8-1.93-.8s-1.41.28-1.93.8L22.36 56.57c-7.61 7.61-11.8 17.74-11.8 28.53s4.19 20.92 11.8 28.53c.94.94 1.43 2.41 1.57 4.77l.52 10.14c.03.67.32 1.31.8 1.79.51.52 1.2.8 1.93.8h.14c.72-.04 1.39-.35 1.88-.9.49-.54.74-1.24.7-1.97l-.52-10.17c-.15-2.37-.63-5.79-3.16-8.32Zm-.56 8.52c-.09-1.4-.29-2.56-.63-3.52.34.96.54 2.12.63 3.52l.34 6.77-.35-6.77Zm1.52 11.11c-.09 0-.16-.03-.25-.05.1.03.19.05.3.05h-.05Z" fill="#ed6e13" data-color="2"></path>
        <path d="M48.92 37.73c6.65-6.65 15.9-10.46 25.37-10.46h.3c9.45.08 18.18 3.78 24.57 10.42 3.41 3.53 5.99 7.64 7.66 12.23a2.734 2.734 0 0 0 3.49 1.63 2.745 2.745 0 0 0 1.63-3.5 40.01 40.01 0 0 0-8.86-14.15C95.6 26.2 85.5 21.91 74.63 21.81h-.35c-10.91 0-21.56 4.39-29.23 12.06a2.74 2.74 0 0 0 0 3.86c.52.52 1.2.8 1.93.8s1.41-.28 1.93-.8Zm60.81 12.19c-.11.04-.23.06-.34.06h-.02c.12 0 .24-.01.36-.05ZM74.29 23.54h.33c-.76 0-1.51.06-2.27.1.64-.03 1.29-.1 1.93-.1Z" fill="#ed6e13" data-color="2"></path>
        <path d="M114.18 57.72a2.73 2.73 0 0 0-2.71-2.45c-.06 0-.23 0-.29.01-.72.08-1.38.43-1.84 1-.46.57-.67 1.28-.59 2 1.1 10.54-2.55 20.86-10.01 28.32l-23.17 23.17a21.876 21.876 0 0 0-6.45 15.57v4.69c0 .73.28 1.41.8 1.93.51.51 1.2.8 1.93.8s1.41-.28 1.93-.8.8-1.2.8-1.93v-4.69c0-4.42 1.72-8.58 4.85-11.71l23.17-23.17c8.63-8.63 12.85-20.57 11.58-32.75Zm-2.82-.71h.11c.06 0 .11.02.17.03-.09-.02-.18-.04-.27-.03Zm-38.51 68.34v4.69-4.69c0-1.83.27-3.62.78-5.33-.52 1.7-.78 3.5-.78 5.33Zm-1.27-5.44Z" fill="#ed6e13" data-color="2"></path>
        <path d="M95.13 82.99c5.74-5.73 8.83-13.37 8.71-21.5-.12-8.13-3.44-15.68-9.35-21.24-5.41-5.1-12.59-7.9-20.21-7.9-8.2 0-15.9 3.17-21.66 8.94L29.86 64.05c-11.61 11.61-11.61 30.5 0 42.11 3.26 3.26 5.05 7.59 5.05 12.19v14.29c0 .73.28 1.41.8 1.93s1.2.8 1.93.8c1.5 0 2.73-1.22 2.73-2.73v-14.29c0-6.06-2.36-11.76-6.65-16.05-9.48-9.48-9.48-24.91 0-34.4l22.76-22.76c4.74-4.74 11.06-7.35 17.8-7.35 6.23 0 12.08 2.28 16.47 6.43 4.83 4.55 7.54 10.72 7.64 17.35.1 6.64-2.43 12.88-7.11 17.56L68.11 102.3c-6.93 6.93-10.74 16.14-10.74 25.94v4.94c0 1.5 1.22 2.73 2.73 2.73s2.73-1.22 2.73-2.73v-4.94c0-8.34 3.25-16.18 9.14-22.08l23.17-23.17Zm-58.29 26.86c-1.03-2.33-2.5-4.47-4.36-6.33 1.86 1.86 3.32 4 4.36 6.33Zm-5.77-44.59c-.64.64-1.24 1.31-1.81 1.99.57-.69 1.17-1.35 1.81-1.99L53.83 42.5 31.07 65.26Zm42.84-31.18c.12 0 .24-.02.36-.02.35 0 .69.03 1.04.05-.46-.02-.93-.03-1.4-.03ZM93.3 41.5Zm6.72 22.68c-.22 2.62-.83 5.16-1.8 7.55.97-2.39 1.57-4.93 1.8-7.55Zm-40.93 64.05Zm6.15-16.04Z" fill="#ed6e13" data-color="2"></path>
        <path d="M41.18 94.83c-5.36-5.36-5.36-14.08 0-19.45l23.17-23.17c2.59-2.59 6.04-4.02 9.72-4.02h.27c3.78.07 7.27 1.64 9.83 4.4 4.96 5.35 4.67 14.03-.65 19.35L62.95 92.51a2.74 2.74 0 0 0 0 3.86c.52.52 1.2.8 1.93.8s1.41-.28 1.93-.8L87.38 75.8c7.37-7.37 7.73-19.44.8-26.92-3.59-3.87-8.47-6.05-13.73-6.15h-.37c-5.13 0-9.95 1.99-13.57 5.62L37.34 71.52c-3.62 3.62-5.62 8.45-5.62 13.58s2 9.96 5.62 13.58l1.24 1.24A28.927 28.927 0 0 1 47 121.65l-.55 11.94c-.03.76.26 1.51.8 2.05.48.48 1.12.76 1.8.8h.13c1.46 0 2.66-1.14 2.73-2.6l.55-11.94a34.43 34.43 0 0 0-10.01-25.84l-1.24-1.24Zm32.89-50.37h.34c4.8.09 9.23 2.08 12.49 5.59-3.27-3.51-7.7-5.5-12.49-5.59-.38 0-.74.02-1.12.03.26-.01.51-.04.77-.04Zm-24.71 90.21c-.07.01-.13.04-.2.04h-.05c.09 0 .17-.02.25-.04Z" fill="#ed6e13" data-color="2"></path>
        <path d="M59.13 81.38c-.52.52-.8 1.2-.8 1.93s.28 1.41.8 1.93c.51.51 1.2.8 1.93.8s1.41-.28 1.93-.8l17.19-17.19c3.37-3.37 3.37-8.85 0-12.21-1.63-1.63-3.8-2.53-6.11-2.53s-4.48.9-6.11 2.53L44.79 79.01a8.585 8.585 0 0 0-2.53 6.11c0 2.31.9 4.48 2.53 6.11s3.8 2.53 6.11 2.53 4.48-.9 6.11-2.53a2.74 2.74 0 0 0 0-3.86c-.52-.52-1.2-.8-1.93-.8s-1.41.28-1.93.8c-.6.6-1.4.93-2.25.93s-1.65-.33-2.25-.93a3.187 3.187 0 0 1 0-4.5L71.82 59.7c.6-.6 1.4-.93 2.25-.93s1.65.33 2.25.93c.6.6.93 1.4.93 2.25s-.33 1.65-.93 2.25L59.13 81.39Zm10.06-24.33L57.6 68.64l11.58-11.59Z" fill="#ed6e13" data-color="2"></path>
        <path d="M58.64 107.65c.08-.88.54-3.47 1.76-4.69.52-.51.8-1.2.8-1.93s-.28-1.41-.8-1.93c-.51-.51-1.2-.8-1.93-.8s-1.41.28-1.93.8c-2.89 2.89-3.31 7.6-3.35 8.13a2.725 2.725 0 0 0 2.51 2.92h.21a2.75 2.75 0 0 0 2.72-2.52Zm-2.72.79h-.08c.09 0 .18-.02.26-.03-.06.01-.12.04-.18.04Z" fill="#ed6e13" data-color="2"></path>
    </g>
</svg>